HIERARCHY
ROOT Hips
{
  OFFSET 5.36226 93.4173 -24.2967
  CHANNELS 6 Xposition Yposition Zposition Zrotation Xrotation Yrotation
  JOINT ToSpine
  {
    OFFSET -2.69724 7.43032 -0.144315
    CHANNELS 3 Zrotation Xrotation Yrotation
    JOINT Spine
    {
      OFFSET -0.0310711 10.7595 1.96963
      CHANNELS 3 Zrotation Xrotation Yrotation
      JOINT Spine1
      {
        OFFSET 13.1342 3.43533 0.764692
        CHANNELS 3 Zrotation Xrotation Yrotation
        JOINT Neck
        {
          OFFSET 29.8703 7.82586 -0.130764
          CHANNELS 3 Zrotation Xrotation Yrotation
          JOINT Head
          {
            OFFSET 9.52751 0.295786 -0.907742
            CHANNELS 3 Zrotation Xrotation Yrotation
            End Site
            {
              OFFSET 16.4037 0.713936 2.7358
            }
          }
        }
        JOINT LeftShoulder
        {
          OFFSET 27.5574 4.95586 2.47156
          CHANNELS 3 Zrotation Xrotation Yrotation
          JOINT LeftArm
          {
            OFFSET 1.20734 -0.998971 20.1238
            CHANNELS 3 Zrotation Xrotation Yrotation
            JOINT LeftForeArm
            {
              OFFSET 26.8049 -0.0536703 -0.155908
              CHANNELS 3 Zrotation Xrotation Yrotation
              JOINT LeftHand
              {
                OFFSET 26.6817 0 0.320147
                CHANNELS 3 Zrotation Xrotation Yrotation
                End Site
                {
                  OFFSET 18.6119 0 0.382219
                }
              }
            }
          }
        }
        JOINT RightShoulder
        {
          OFFSET 27.5927 4.71444 -2.65209
          CHANNELS 3 Zrotation Xrotation Yrotation
          JOINT RightArm
          {
            OFFSET 2.83739 -1.17114 -18.7564
            CHANNELS 3 Zrotation Xrotation Yrotation
            JOINT RightForeArm
            {
              OFFSET 28.839 -0.0548439 1.22491
              CHANNELS 3 Zrotation Xrotation Yrotation
              JOINT RightHand
              {
                OFFSET 26.5114 0 -0.101894
                CHANNELS 3 Zrotation Xrotation Yrotation
                End Site
                {
                  OFFSET 18.2168 0 0
                }
              }
            }
          }
        }
      }
    }
  }
  JOINT LeftUpLeg
  {
    OFFSET -4.76168 -1.9167 -10.2353
    CHANNELS 3 Zrotation Xrotation Yrotation
    JOINT LeftLeg
    {
      OFFSET 2.55951 -42.0585 -8.02213
      CHANNELS 3 Zrotation Xrotation Yrotation
      JOINT LeftFoot
      {
        OFFSET 3.16357 -42.5282 -3.95426
        CHANNELS 3 Zrotation Xrotation Yrotation
        JOINT LeftToeBase
        {
          OFFSET 0.346054 -6.02161 12.8035
          CHANNELS 3 Zrotation Xrotation Yrotation
          End Site
          {
            OFFSET 0.134235 -1.35082 5.13018
          }
        }
      }
    }
  }
  JOINT RightUpLeg
  {
    OFFSET -4.94151 -1.41743 10.6446
    CHANNELS 3 Zrotation Xrotation Yrotation
    JOINT RightLeg
    {
      OFFSET -2.56294 -42.0364 -7.94377
      CHANNELS 3 Zrotation Xrotation Yrotation
      JOINT RightFoot
      {
        OFFSET -3.0952 -42.555 -4.02241
        CHANNELS 3 Zrotation Xrotation Yrotation
        JOINT RightToeBase
        {
          OFFSET -0.0828122 -6.13587 12.8035
          CHANNELS 3 Zrotation Xrotation Yrotation
          End Site
          {
            OFFSET -0.131328 -1.35082 5.13018
          }
        }
      }
    }
  }
}
MOTION
Frames:	6
Frame Time:	0.0333333
4.27146 92.3334 -19.2117 74.6593 -22.2916 -6.26036 -70.1915 0 88.8779 94.8095 72.687 -4.90493 -0.206923 20.3675 7.364 -115.81 31.21 158.661 -173.913 75.6934 -157.263 0.910723 -11.5995 -18.9775 -63.9531 32.8912 -140.535 24.7899 -4.46332 -98.8168 0.420957 0.000575941 0.358661 -0.746401 5.8068 27.7222 -126.174 -21.9345 112.442 16.1007 -2.43015 81.436 1.53245 0.0194249 0.900357 -46.1379 16.8372 94.7481 -4.06581 45.6 -15.1682 -5.52836 -9.73304 -0.617482 4.38943 -10.9651 8.72753 -46.2727 -18.1435 78.1743 1.69193 40.4094 -0.736704 -4.70074 -5.98434 0.973245 1.51428 -12.2157 -0.456099 
4.75818 92.9394 -20.9734 73.5359 -24.4599 -6.53751 -70.1915 0 88.8779 87.9671 71.9503 0.246383 2.53521 19.2563 7.7115 -114.206 30.8535 155.781 -178.076 76.3615 -152.404 0.824894 -12.6832 -18.2275 -64.7416 33.3436 -143.392 25.6481 -4.28127 -98.0996 0.420957 0.000575941 0.358661 -0.87192 5.97145 29.4217 -126.334 -17.8426 111.334 20.4956 -2.76709 82.4221 1.62522 0.0132826 0.529189 -46.8381 16.6609 96.1506 -3.78505 44.1344 -14.0927 -5.07843 -10.422 -0.724327 4.25854 -10.7346 8.71743 -46.1162 -17.4415 78.4627 1.52957 36.7125 0.299618 -4.5399 -1.50133 0.794652 1.51318 -12.6625 0.524246 
5.14556 93.3293 -22.8662 72.7369 -26.1427 -6.8667 -70.1915 0 88.8779 84.1242 71.2904 2.22789 4.39703 18.4865 7.95445 -112.397 29.8801 151.917 -175.653 77.1538 -154.051 0.706968 -14.1618 -17.8844 -66.1183 34.2109 -145.072 23.4112 -3.54479 -97.3943 0.420957 0.000575941 0.358661 -0.964274 5.69053 31.9304 -127.15 -14.4431 110.922 22.8177 -3.0827 82.5006 1.72082 0.010651 0.355362 -47.435 15.7682 96.4246 -3.54664 43.0432 -12.8401 -4.81548 -11.3296 -0.846432 4.08198 -10.2495 7.61909 -45.2662 -17.731 77.891 1.50054 34.8446 0.919255 -4.1223 2.18445 0.58602 1.56995 -12.956 0.0459739 
5.41929 93.3929 -24.7493 72.1871 -28.0673 -7.62955 -70.1915 0 88.8779 82.1328 70.9641 1.90857 5.43291 17.7653 8.86885 -112.188 29.5087 151.386 -177.44 76.9833 -152.136 0.580118 -15.3882 -18.3784 -67.6666 35.281 -145.485 22.4115 -3.16671 -96.9016 0.420957 0.000575941 0.358661 -0.987096 5.77994 32.0525 -127.936 -13.8985 109.606 25.025 -3.29438 82.7625 1.86831 0.0110773 0.140965 -47.7292 14.7419 96.8334 -3.4625 43.1644 -11.7319 -4.69172 -13.6711 -1.13904 2.94696 -8.13402 7.23269 -42.9565 -18.1627 78.705 1.56351 35.5938 1.18823 -2.45362 4.64389 0.209129 1.87321 -13.3639 -5.07552 
5.58707 93.1317 -26.3927 71.9379 -31.0547 -8.48625 -70.1915 0 88.8779 82.5891 71.4259 -0.27522 5.68747 17.952 9.63651 -111.933 29.3695 152.421 176.64 76.2056 -145.681 0.417937 -16.2745 -19.8193 -68.7322 35.5607 -145.272 22.0837 -3.08064 -96.8181 0.420957 0.000575941 0.358661 -1.21785 6.3693 33.8601 -129.081 -11.8828 108.971 27.6066 -3.38967 83.3265 1.59864 0.0107729 -0.241921 -47.7337 14.7144 98.3212 -3.59377 45.0003 -10.8116 -4.48935 -15.3269 -1.34554 2.68028 -7.80199 7.91808 -40.3971 -17.5575 80.2793 1.69356 36.7376 1.85826 -1.72187 6.04825 -0.00388996 2.11609 -15.8417 -7.874 
5.73018 92.8436 -27.6759 71.7147 -33.6958 -8.56916 -70.1915 0 88.8779 84.3126 71.7256 -2.13302 5.53488 18.4497 9.19556 -112.053 28.8632 152.832 176.64 75.5877 -146.124 0.354731 -16.3793 -20.7503 -69.0818 34.7496 -144.923 19.8699 -2.88946 -97.2052 0.420957 0.000575941 0.358661 -1.42136 6.58831 36.256 -129.84 -10.3177 108.122 28.4351 -3.09638 84.084 1.45762 0.0106138 -0.148001 -47.3903 15.4325 99.3503 -3.79911 47.0966 -10.0754 -4.39294 -16.4339 -1.47987 3.0184 -8.64986 9.05119 -40.0076 -16.2022 80.0751 1.84425 35.3327 4.00884 0.126752 5.80044 -0.318341 2.12162 -16.1966 -7.27057 
